<?xml version="1.0" encoding="UTF-8"?>
<svg version="1.1" xmlns="http://www.w3.org/2000/svg" width="1360" height="309">
<path d="M0 0 C4.59217688 2.71241217 6.35261117 6.05783352 8 11 C8.2734375 12.98046875 8.2734375 12.98046875 8.375 15.1875 C8.42398438 15.90292969 8.47296875 16.61835937 8.5234375 17.35546875 C6.72552878 26.43893294 -1.4861275 32.84147219 -7.8125 39 C-8.8021314 39.974551 -9.79106945 40.9498066 -10.77929688 41.92578125 C-13.17949231 44.29085188 -15.58642924 46.64859359 -18 49 C-15.42070392 50.97104417 -12.97384091 52.56947548 -10.0625 54 C1.04011013 60.19389986 9.94178258 69.71885525 18.92526245 78.57479858 C20.00817169 79.64147902 21.0940094 80.70519538 22.18289185 81.76577759 C35.21331941 94.4932359 35.21331941 94.4932359 36.5 103.5 C35.50769907 110.44610654 32.45944261 115.49426265 26.9140625 119.80078125 C23.03734154 122.22966561 19.44653402 123.44560327 14.86503601 122.61114502 C8.90777977 120.7597779 5.43546349 118.1806439 1.26953125 113.609375 C0.04108387 112.32936158 -1.18743404 111.04941585 -2.41601562 109.76953125 C-4.2989213 107.76926421 -6.17526992 105.76312395 -8.0480957 103.75341797 C-21.01297888 89.72246127 -21.01297888 89.72246127 -38.64257812 83.74560547 C-54.51380267 84.38093394 -62.47197207 93.31890137 -73.171875 104.00390625 C-74.01671448 104.84541733 -74.86155396 105.68692841 -75.73199463 106.55393982 C-77.50476563 108.32167815 -79.27621104 110.09074676 -81.04638672 111.86108398 C-83.75077211 114.56327149 -86.46307137 117.25734454 -89.17578125 119.95117188 C-90.90413514 121.67659333 -92.6320162 123.40248859 -94.359375 125.12890625 C-95.16671082 125.92905655 -95.97404663 126.72920685 -96.80584717 127.55360413 C-104.49423275 135.27333298 -108.94143656 141.52539857 -109.375 152.8125 C-108.94031371 171.18371518 -91.98491444 183.25255576 -79.95239258 195.34277344 C-78.26953167 197.03723352 -76.59116794 198.73617136 -74.91723633 200.43945312 C-72.47412106 202.92525435 -70.01800551 205.39752092 -67.55859375 207.8671875 C-66.81878769 208.62450165 -66.07898163 209.3818158 -65.3167572 210.16207886 C-58.22533861 217.22432293 -51.43321984 221.09124361 -41.3125 221.25 C-24.7513413 221.04877085 -15.57464869 209.82722382 -4.75 198.75 C-2.43810933 196.38481657 -0.11958683 194.02642684 2.203125 191.671875 C2.72610168 191.13230164 3.24907837 190.59272827 3.78790283 190.0368042 C8.19650175 185.56929704 11.09821111 183.71291021 17.375 183.625 C22.43154076 183.73915829 25.16066842 184.51781555 29 188 C29.5465625 188.48597656 30.093125 188.97195312 30.65625 189.47265625 C34.49636872 193.30371809 36.14348263 196.82197764 36.22387695 202.28393555 C35.35546016 212.81952636 26.46819482 220.27242956 19.37402344 227.22290039 C17.51594591 229.046847 15.68288868 230.89337936 13.8515625 232.74414062 C6.45025276 240.13985537 -1.03238706 246.56296602 -10 252 C-10.85037842 252.53794189 -11.70075684 253.07588379 -12.5769043 253.63012695 C-20.53252296 257.98931745 -28.87491717 257.82878438 -37.72338867 257.76171875 C-40.2991529 257.75006041 -42.86831046 257.80235378 -45.44335938 257.859375 C-56.5331723 257.95280561 -64.6492921 256.34960968 -74 250 C-74.81367035 249.45121185 -75.6273407 248.90242371 -76.46566772 248.33700562 C-83.61161542 243.33937424 -89.75414565 237.68447142 -95.890625 231.5078125 C-96.88903092 230.51143585 -97.88788106 229.51550416 -98.887146 228.51998901 C-100.96253905 226.44897723 -103.03251692 224.37274632 -105.09863281 222.29248047 C-107.72284176 219.65115977 -110.36032782 217.02357453 -113.00204849 214.39978218 C-115.06151677 212.35124717 -117.1136733 210.29550592 -119.16381073 208.23763657 C-120.59706513 206.80146114 -122.03626742 205.37122918 -123.47564697 203.94119263 C-139.36002705 187.88706824 -144.17021868 174.29007436 -144.45996094 152.13647461 C-144.48650488 150.5957927 -144.52736238 149.05528635 -144.58300781 147.51538086 C-145.19842172 130.18184035 -139.19126023 120.02270953 -128 107 C-124.51275056 103.25839586 -120.90670261 99.6417417 -117.27954102 96.03662109 C-116.2367159 94.99271973 -115.19432469 93.94838477 -114.15232849 92.90365601 C-111.3557031 90.10223894 -108.55296091 87.30702005 -105.74883389 84.51311445 C-102.80497744 81.5781164 -99.86646953 78.63777176 -96.92723083 75.69815063 C-92.00250004 70.77435193 -87.07393644 65.85441712 -82.14282227 60.93701172 C-76.44016875 55.25015322 -70.7428295 49.55801426 -65.04843384 43.86288774 C-58.97359661 37.78737616 -52.89496562 31.71567137 -46.8151958 25.6450963 C-45.06531759 23.89735017 -43.31615189 22.14889362 -41.56714058 20.40028 C-38.8271568 17.66129808 -36.08464642 14.92487131 -33.34012794 12.1904335 C-32.33224463 11.18547769 -31.32521224 10.17966766 -30.31908035 9.17295837 C-28.9497368 7.80312623 -27.57702141 6.43666716 -26.20411682 5.07040405 C-25.05189558 3.92069657 -25.05189558 3.92069657 -23.87639713 2.74776268 C-18.34897919 -2.40072888 -7.03148063 -1.18914746 0 0 Z M5 10 C6 12 6 12 6 12 Z M6 12 C6 14.31 6 16.62 6 19 C6.33 19 6.66 19 7 19 C7 16.69 7 14.38 7 12 C6.67 12 6.34 12 6 12 Z M5 19 C6 22 6 22 6 22 Z M4 66 C5 68 5 68 5 68 Z M33 99 C34 101 34 101 34 101 Z M34 102 C35 106 35 106 35 106 Z M33 107 C34 109 34 109 34 109 Z M-140 126 C-139 128 -139 128 -139 128 Z M-141 128 C-140 130 -140 130 -140 130 Z M-142 131 C-141 133 -141 133 -141 133 Z M-143 134 C-142 136 -142 136 -142 136 Z M-110 140 C-109 142 -109 142 -109 142 Z M-111 143 C-110 145 -110 145 -110 145 Z M-112 146 C-112.05397335 148.4377963 -112.09365616 150.87439685 -112.125 153.3125 C-112.14175781 154.00279297 -112.15851563 154.69308594 -112.17578125 155.40429688 C-112.21217794 159.17135396 -112.14378864 160.78431704 -110 164 C-110.33 158.06 -110.66 152.12 -111 146 C-111.33 146 -111.66 146 -112 146 Z M-143 170 C-142 172 -142 172 -142 172 Z M-142 173 C-141 175 -141 175 -141 175 Z M-141 176 C-140 178 -140 178 -140 178 Z M-140 178 C-139 180 -139 180 -139 180 Z M8 187 C9 189 9 189 9 189 Z M33 197 C34 200 34 200 34 200 Z M34 200 C35 204 35 204 35 204 Z M33 205 C34 207 34 207 34 207 Z M32 208 C33 210 33 210 33 210 Z M-56 219 C-55 221 -55 221 -55 221 Z " fill="#010101" transform="translate(218,22)"/>
<path d="M0 0 C2.87029869 1.79393668 4.49131638 2.98263276 6 6 C6.10019635 7.42319887 6.13937913 8.85093341 6.14717102 10.27763367 C6.15432632 11.17584839 6.16148163 12.07406311 6.16885376 12.99949646 C6.17154266 13.98797073 6.17423157 14.97644501 6.17700195 15.99487305 C6.18357315 17.0342099 6.19014435 18.07354675 6.19691467 19.14437866 C6.21669534 22.6001594 6.22832685 26.05589638 6.23828125 29.51171875 C6.24235678 30.69371164 6.2464323 31.87570454 6.25063133 33.0935154 C6.27152195 39.36125134 6.28580526 45.62896525 6.29516602 51.89672852 C6.30617847 58.34335935 6.34050996 64.78964004 6.38033772 71.23614788 C6.40662168 76.21306453 6.41486876 81.18989972 6.41844749 86.16687965 C6.42329065 88.54088492 6.434839 90.91488711 6.45348549 93.28882408 C6.61655153 115.44378249 4.3104139 132.92891578 -11.62109375 149.75 C-25.76759593 163.12994295 -41.50404882 166.6460078 -60.34375 166.30859375 C-74.29913131 165.75469933 -88.41543147 159.30504862 -98 149 C-109.76755111 135.08359174 -115.78378342 120.27657102 -115.34765625 101.90234375 C-113.88400087 85.47322322 -107.65089234 72.69099869 -96 61 C-95.38511719 60.36191406 -94.77023437 59.72382813 -94.13671875 59.06640625 C-81.25363036 46.6798823 -65.47680654 44.38182025 -48.41015625 44.68359375 C-35.93945156 45.19969737 -25.59815824 50.25674899 -16 58 C-15.99635437 57.3596431 -15.99270874 56.71928619 -15.98895264 56.05952454 C-15.94712802 49.39193487 -15.87778228 42.72503358 -15.79248047 36.05786133 C-15.76426248 33.56997565 -15.74305213 31.08200018 -15.72900391 28.59399414 C-15.70758679 25.01662193 -15.6609398 21.44033027 -15.609375 17.86328125 C-15.60814636 16.75165115 -15.60691772 15.64002106 -15.60565186 14.4947052 C-15.45915534 6.76297367 -15.45915534 6.76297367 -13.08691406 2.82104492 C-9.079755 -0.6756092 -5.14549831 -0.66651533 0 0 Z M-78 75 C-79.010625 75.70125 -80.02125 76.4025 -81.0625 77.125 C-88.26773286 83.36295502 -92.44958946 92.42057529 -93.37109375 101.76171875 C-93.57084134 113.57032604 -91.56760116 122.18042614 -83.6875 131.4375 C-79.816982 135.43618084 -75.97742881 138.52136136 -71 141 C-69.865625 141.598125 -68.73125 142.19625 -67.5625 142.8125 C-59.494584 145.61385972 -47.06758875 145.47607865 -39.109375 142.16015625 C-28.74667264 136.46066995 -20.20890408 128.72365144 -16.5 117.1796875 C-13.92771997 105.96615426 -15.06344001 95.8816441 -20.625 85.75 C-26.98602216 76.01310366 -35.91972857 70.10087057 -47.125 67.1875 C-48.548125 67.0946875 -48.548125 67.0946875 -50 67 C-50.65097656 66.94972656 -51.30195312 66.89945312 -51.97265625 66.84765625 C-61.67939002 66.41966975 -70.22402037 69.28843974 -78 75 Z " fill="#656565" transform="translate(1147,78)"/>
<path d="M0 0 C7.10823238 5.29060219 11.69660536 11.28636809 16 19 C16.38542969 19.64066406 16.77085938 20.28132813 17.16796875 20.94140625 C19.33339288 25.01694249 19.31604684 28.49137747 18.04563904 32.80381775 C15.17449241 38.83416 5.93830524 41.57336633 0.12109375 44.15234375 C-0.71687241 44.52957581 -1.55483856 44.90680786 -2.41819763 45.29547119 C-5.13052234 46.51501081 -7.84639894 47.72639735 -10.5625 48.9375 C-12.43969047 49.77917463 -14.31664167 50.62138308 -16.19335938 51.46411133 C-19.97699616 53.16263192 -23.76185021 54.85840026 -27.54736328 56.55273438 C-32.56986149 58.8034474 -37.58182668 61.07665391 -42.58984375 63.359375 C-44.03505229 64.01705809 -45.48028268 64.67469315 -46.92553711 65.33227539 C-48.95034743 66.25364603 -50.97471011 67.17592817 -52.99758911 68.10153198 C-54.83017709 68.93957314 -56.66502486 69.77266751 -58.5 70.60546875 C-60.03140625 71.30385864 -60.03140625 71.30385864 -61.59375 72.01635742 C-64 73 -64 73 -66 73 C-60.92175303 79.81554199 -54.55512892 84.49830184 -46 86 C-31.94860846 86.8909926 -21.49276285 85.43116749 -10.5 75.8125 C-6.41787718 71.22011183 -3.05987625 66.24693765 -0.4375 60.6875 C1.30922954 57.4218752 2.80924003 55.88544907 6 54 C10.42627318 53.35617845 12.44619886 53.6923327 16.375 55.875 C18.99699529 57.99756762 19.79884676 58.72178572 20.30859375 61.9609375 C20.8903415 72.85548624 15.0207458 81.62412052 8.1796875 89.69140625 C-2.11429772 100.59417554 -16.17183967 108.68681332 -31.35546875 109.3359375 C-49.62816727 109.62079173 -65.25996529 106.73732409 -79.28515625 93.84375 C-92.23629889 79.91905905 -98.80051476 63.98146966 -98.34765625 44.90234375 C-96.88400087 28.47322322 -90.65089234 15.69099869 -79 4 C-78.38511719 3.36191406 -77.77023437 2.72382813 -77.13671875 2.06640625 C-55.97346277 -18.28113536 -22.5694243 -16.16338534 0 0 Z M-61 18 C-62.010625 18.70125 -63.02125 19.4025 -64.0625 20.125 C-69.96178236 25.2323239 -74.78915499 33.33131491 -76 41 C-76.13658967 45.00663019 -76.11842626 48.99324498 -76 53 C-70.74506181 51.38675299 -65.84744925 49.21100842 -60.859375 46.9296875 C-59.97832092 46.52976593 -59.09726685 46.12984436 -58.18951416 45.71780396 C-55.3750569 44.43967602 -52.56245833 43.15751966 -49.75 41.875 C-46.07865442 40.20456358 -42.40657265 38.53574979 -38.734375 36.8671875 C-37.39095032 36.25626251 -37.39095032 36.25626251 -36.02038574 35.63299561 C-27.36982453 31.70357685 -18.68967102 27.84201675 -10 24 C-9.66594707 20.99491754 -9.66594707 20.99491754 -11.51171875 19.31640625 C-19.57550025 12.81615868 -29.06441516 9.16993905 -39.53125 9.6796875 C-47.67294576 10.73604676 -54.38817831 13.1435292 -61 18 Z " fill="#666666" transform="translate(1268,135)"/>
<path d="M0 0 C7.10823238 5.29060219 11.69660536 11.28636809 16 19 C16.38542969 19.64066406 16.77085937 20.28132813 17.16796875 20.94140625 C19.33339288 25.01694249 19.31604684 28.49137747 18.04563904 32.80381775 C15.17449241 38.83416 5.93830524 41.57336633 0.12109375 44.15234375 C-0.71687241 44.52957581 -1.55483856 44.90680786 -2.41819763 45.29547119 C-5.13052234 46.51501081 -7.84639894 47.72639735 -10.5625 48.9375 C-12.43969047 49.77917463 -14.31664167 50.62138308 -16.19335938 51.46411133 C-19.97699616 53.16263192 -23.76185021 54.85840026 -27.54736328 56.55273438 C-32.56986149 58.8034474 -37.58182668 61.07665391 -42.58984375 63.359375 C-44.03505229 64.01705809 -45.48028268 64.67469315 -46.92553711 65.33227539 C-48.95034743 66.25364603 -50.97471011 67.17592817 -52.99758911 68.10153198 C-54.83017709 68.93957314 -56.66502486 69.77266751 -58.5 70.60546875 C-60.03140625 71.30385864 -60.03140625 71.30385864 -61.59375 72.01635742 C-64 73 -64 73 -66 73 C-60.92175303 79.81554199 -54.55512892 84.49830184 -46 86 C-31.94860846 86.8909926 -21.49276285 85.43116749 -10.5 75.8125 C-6.41787718 71.22011183 -3.05987625 66.24693765 -0.4375 60.6875 C1.30922954 57.4218752 2.80924003 55.88544907 6 54 C10.42627318 53.35617845 12.44619886 53.6923327 16.375 55.875 C18.99699529 57.99756762 19.79884676 58.72178572 20.30859375 61.9609375 C20.8903415 72.85548624 15.0207458 81.62412052 8.1796875 89.69140625 C-2.11429772 100.59417554 -16.17183967 108.68681332 -31.35546875 109.3359375 C-49.62816727 109.62079173 -65.25996529 106.73732409 -79.28515625 93.84375 C-92.23629889 79.91905905 -98.80051476 63.98146966 -98.34765625 44.90234375 C-96.88400087 28.47322322 -90.65089234 15.69099869 -79 4 C-78.38511719 3.36191406 -77.77023437 2.72382813 -77.13671875 2.06640625 C-55.97346277 -18.28113536 -22.5694243 -16.16338534 0 0 Z M-61 18 C-62.010625 18.70125 -63.02125 19.4025 -64.0625 20.125 C-69.96178236 25.2323239 -74.78915499 33.33131491 -76 41 C-76.13658967 45.00663019 -76.11842626 48.99324498 -76 53 C-70.74506181 51.38675299 -65.84744925 49.21100842 -60.859375 46.9296875 C-59.97832092 46.52976593 -59.09726685 46.12984436 -58.18951416 45.71780396 C-55.3750569 44.43967602 -52.56245833 43.15751966 -49.75 41.875 C-46.07865442 40.20456358 -42.40657265 38.53574979 -38.734375 36.8671875 C-37.39095032 36.25626251 -37.39095032 36.25626251 -36.02038574 35.63299561 C-27.36982453 31.70357685 -18.68967102 27.84201675 -10 24 C-9.66594707 20.99491754 -9.66594707 20.99491754 -11.51171875 19.31640625 C-19.57550025 12.81615868 -29.06441516 9.16993905 -39.53125 9.6796875 C-47.67294576 10.73604676 -54.38817831 13.1435292 -61 18 Z " fill="#666666" transform="translate(670,135)"/>
<path d="M0 0 C7.10823238 5.29060219 11.69660536 11.28636809 16 19 C16.38542969 19.64066406 16.77085937 20.28132813 17.16796875 20.94140625 C19.33339288 25.01694249 19.31604684 28.49137747 18.04563904 32.80381775 C15.17449241 38.83416 5.93830524 41.57336633 0.12109375 44.15234375 C-0.71687241 44.52957581 -1.55483856 44.90680786 -2.41819763 45.29547119 C-5.13052234 46.51501081 -7.84639894 47.72639735 -10.5625 48.9375 C-12.43969047 49.77917463 -14.31664167 50.62138308 -16.19335938 51.46411133 C-19.97699616 53.16263192 -23.76185021 54.85840026 -27.54736328 56.55273438 C-32.56986149 58.8034474 -37.58182668 61.07665391 -42.58984375 63.359375 C-44.03505229 64.01705809 -45.48028268 64.67469315 -46.92553711 65.33227539 C-48.95034743 66.25364603 -50.97471011 67.17592817 -52.99758911 68.10153198 C-54.83017709 68.93957314 -56.66502486 69.77266751 -58.5 70.60546875 C-60.03140625 71.30385864 -60.03140625 71.30385864 -61.59375 72.01635742 C-64 73 -64 73 -66 73 C-60.92175303 79.81554199 -54.55512892 84.49830184 -46 86 C-31.94860846 86.8909926 -21.49276285 85.43116749 -10.5 75.8125 C-6.41787718 71.22011183 -3.05987625 66.24693765 -0.4375 60.6875 C1.30922954 57.4218752 2.80924003 55.88544907 6 54 C10.42627318 53.35617845 12.44619886 53.6923327 16.375 55.875 C18.99699529 57.99756762 19.79884676 58.72178572 20.30859375 61.9609375 C20.8903415 72.85548624 15.0207458 81.62412052 8.1796875 89.69140625 C-2.11429772 100.59417554 -16.17183967 108.68681332 -31.35546875 109.3359375 C-49.62816727 109.62079173 -65.25996529 106.73732409 -79.28515625 93.84375 C-92.23629889 79.91905905 -98.80051476 63.98146966 -98.34765625 44.90234375 C-96.88400087 28.47322322 -90.65089234 15.69099869 -79 4 C-78.38511719 3.36191406 -77.77023437 2.72382813 -77.13671875 2.06640625 C-55.97346277 -18.28113536 -22.5694243 -16.16338534 0 0 Z M-61 18 C-62.010625 18.70125 -63.02125 19.4025 -64.0625 20.125 C-69.96178236 25.2323239 -74.78915499 33.33131491 -76 41 C-76.13658967 45.00663019 -76.11842626 48.99324498 -76 53 C-70.74506181 51.38675299 -65.84744925 49.21100842 -60.859375 46.9296875 C-59.97832092 46.52976593 -59.09726685 46.12984436 -58.18951416 45.71780396 C-55.3750569 44.43967602 -52.56245833 43.15751966 -49.75 41.875 C-46.07865442 40.20456358 -42.40657265 38.53574979 -38.734375 36.8671875 C-37.39095032 36.25626251 -37.39095032 36.25626251 -36.02038574 35.63299561 C-27.36982453 31.70357685 -18.68967102 27.84201675 -10 24 C-9.66594707 20.99491754 -9.66594707 20.99491754 -11.51171875 19.31640625 C-19.57550025 12.81615868 -29.06441516 9.16993905 -39.53125 9.6796875 C-47.67294576 10.73604676 -54.38817831 13.1435292 -61 18 Z " fill="#666666" transform="translate(536,135)"/>
<path d="M0 0 C0.93714844 0.4125 1.87429688 0.825 2.83984375 1.25 C17.50994945 8.49246452 28.22176338 21.18183201 33.5 36.5625 C34.03958423 38.36361219 34.5433447 40.17609699 35 42 C35.18949219 42.75410156 35.37898437 43.50820312 35.57421875 44.28515625 C38.28523333 61.57098316 35.26691266 78.66172542 25 93 C15.48064257 105.23221185 2.52145476 114.32620815 -13 117 C-32.85879579 118.42156664 -48.60349668 115.84693017 -64.6875 103.3125 C-77.00108211 91.9924343 -83.85114981 76.90354903 -85.3203125 60.40234375 C-85.83508696 44.08399352 -81.4532923 29.16246587 -70.625 16.75 C-69.10073817 15.14990425 -67.55995163 13.56532152 -66 12 C-65.38511719 11.36191406 -64.77023437 10.72382813 -64.13671875 10.06640625 C-47.89022619 -5.55388317 -20.32349575 -9.04522759 0 0 Z M-48 26 C-49.010625 26.70125 -50.02125 27.4025 -51.0625 28.125 C-58.26773286 34.36295502 -62.44958946 43.42057529 -63.37109375 52.76171875 C-63.59173544 65.80553608 -60.7742986 75.15793546 -51.46875 84.8046875 C-41.32771698 93.82250484 -31.10881361 95.73770343 -17.94970703 95.13916016 C-8.38172415 94.45624628 -0.04096876 88.63609325 6.1484375 81.53515625 C12.97522258 72.18793364 16.12002147 62.59045592 14.59765625 50.9140625 C12.12718273 39.54111337 6.55477212 30.71819915 -3 24 C-8.35138685 21.01214234 -13.81583108 18.40331536 -20 18 C-20.65097656 17.94972656 -21.30195312 17.89945313 -21.97265625 17.84765625 C-31.67939002 17.41966975 -40.22402037 20.28843974 -48 26 Z " fill="#676767" transform="translate(981,127)"/>
<path d="M0 0 C1.02899414 -0.01015137 2.05798828 -0.02030273 3.11816406 -0.03076172 C11.14675946 0.06038479 20.39465989 0.54599492 27 5.5 C28.84976163 9.84693984 29.15714561 13.79504891 28.25 18.4375 C26.05977082 21.26174288 24.41982793 22.85258603 21.25 24.4375 C18.10228806 24.55628158 15.16912073 24.6465419 12.0859375 23.9453125 C-4.61192468 20.95533718 -20.58014735 24.25828728 -34.75 33.4375 C-49.22781615 44.47504301 -58.0357726 58.3983271 -60.75 76.4375 C-62.25821191 92.3289035 -58.30885922 108.00975748 -48.26953125 120.53125 C-38.071804 132.40692196 -24.72515452 141.94049757 -8.75 143.4375 C-0.61262264 143.74335592 7.33924297 143.58627681 15.4375 142.6875 C19.24479107 142.33964988 21.73150246 142.15599803 25 144.25 C28.12989785 147.29295624 28.44126672 148.99407377 28.5625 153.25 C28.49268867 156.47993751 28.27950663 158.36815942 27 161.375 C19.5658124 166.9506407 8.95735682 166.96474886 0 166.875 C-1.09046631 166.86597656 -2.18093262 166.85695312 -3.30444336 166.84765625 C-25.43832742 166.3762001 -44.368379 157.17696891 -60.2734375 142.03515625 C-77.60548366 123.7862271 -83.69895082 101.896527 -83.08984375 77.35546875 C-82.28436821 59.43148816 -75.60101583 42.95135324 -63.75 29.4375 C-63.18152344 28.715625 -62.61304688 27.99375 -62.02734375 27.25 C-46.77394807 8.59616579 -23.53247227 0.16375869 0 0 Z " fill="#626262" transform="translate(854.75,77.5625)"/>
<path d="M0 0 C0.9714949 -0.0071553 1.94298981 -0.01431061 2.94392395 -0.02168274 C4.00839752 -0.02437164 5.07287109 -0.02706055 6.16960144 -0.02983093 C7.29181595 -0.03640213 8.41403046 -0.04297333 9.57025146 -0.04974365 C13.29111291 -0.06948583 17.011934 -0.08114055 20.73283386 -0.09111023 C22.00237097 -0.09518576 23.27190807 -0.09926128 24.579916 -0.10346031 C30.60485273 -0.12217207 36.62976496 -0.13673788 42.65472299 -0.14507228 C49.60338886 -0.15484393 56.55173612 -0.18116409 63.50028974 -0.22157317 C69.52362459 -0.25539658 75.54680497 -0.26721922 81.57024193 -0.27127647 C84.13031362 -0.27615297 86.69038164 -0.28779696 89.25039101 -0.30631447 C92.83179341 -0.33061246 96.41236092 -0.32975758 99.99382019 -0.32279968 C101.05222107 -0.33560974 102.11062195 -0.3484198 103.20109558 -0.36161804 C109.25647579 -0.31871048 112.62021474 0.19718781 117.27580261 4.14717102 C118.04537292 4.67568665 118.81494324 5.20420227 119.60783386 5.74873352 C122.35406349 9.6976445 121.97294397 13.83004306 121.96330261 18.52217102 C122.00390808 19.45545227 122.04451355 20.38873352 122.08634949 21.35029602 C122.11936099 28.00918746 122.11936099 28.00918746 119.84465027 31.07783508 C113.27827992 36.94747523 107.137414 37.44271898 98.62980652 37.42182922 C97.5576741 37.42694016 96.48554169 37.43205109 95.38092041 37.43731689 C91.8380118 37.45121283 88.29529773 37.450256 84.75236511 37.44795227 C82.28763252 37.45183935 79.82290061 37.45617405 77.35816956 37.4609375 C72.19169443 37.46839984 67.02528763 37.46810841 61.85881042 37.46284485 C55.24225482 37.457052 48.62597929 37.47397701 42.00946999 37.49718952 C36.91878121 37.51193108 31.8281598 37.51279793 26.73745346 37.50967979 C24.29824138 37.51019285 21.85902551 37.51542758 19.41983414 37.52549171 C16.00656766 37.53784579 12.59384571 37.53106992 9.18058777 37.51948547 C8.17567795 37.52712921 7.17076813 37.53477295 6.13540649 37.54264832 C-2.60455512 37.47717745 -8.30337109 35.42206944 -14.72419739 29.14717102 C-18.21011548 24.15068842 -18.70005188 19.05701879 -17.72419739 13.14717102 C-15.58672666 8.01020432 -12.38515078 4.21358773 -7.72419739 1.14717102 C-4.83765161 0.18498909 -3.00068665 0.01517801 0 0 Z M-15.72419739 12.14717102 C-14.72419739 14.14717102 -14.72419739 14.14717102 -14.72419739 14.14717102 Z M-16.72419739 14.14717102 C-16.72419739 16.78717102 -16.72419739 19.42717102 -16.72419739 22.14717102 C-16.39419739 22.14717102 -16.06419739 22.14717102 -15.72419739 22.14717102 C-15.72419739 19.50717102 -15.72419739 16.86717102 -15.72419739 14.14717102 C-16.05419739 14.14717102 -16.38419739 14.14717102 -16.72419739 14.14717102 Z " fill="#B0B0B0" transform="translate(168.7241973876953,156.8528289794922)"/>
<path d="M0 0 C3.34625024 2.52676039 4.67977847 4.03933542 6 8 C6.08518867 10.80426452 6.1158852 13.5829635 6.09765625 16.38671875 C6.0962413 17.20372757 6.09482635 18.02073639 6.09336853 18.86250305 C6.08777294 21.47087268 6.07522129 24.07915634 6.0625 26.6875 C6.05748443 28.45637897 6.05292162 30.22525928 6.04882812 31.99414062 C6.03780496 36.32946019 6.02054338 40.66471552 6 45 C6.70084717 44.97381592 7.40169434 44.94763184 8.1237793 44.9206543 C11.3114565 44.8164646 14.49877526 44.75160417 17.6875 44.6875 C18.79029297 44.64560547 19.89308594 44.60371094 21.02929688 44.56054688 C29.21769543 44.43685505 29.21769543 44.43685505 33.20703125 47.30859375 C35.48693387 50.73093124 36 52.8850064 36 57 C34.85497186 61.0412758 34.04531701 63.27580438 30.55859375 65.69140625 C25.67262575 67.48811238 21.28173586 67.32375522 16.125 67.1875 C15.15046875 67.17396484 14.1759375 67.16042969 13.171875 67.14648438 C10.78067137 67.11131962 8.39063025 67.0621067 6 67 C6.03806533 76.04077809 6.09743865 85.08109343 6.18390274 94.12153912 C6.22338613 98.31956721 6.25557021 102.51738528 6.27099609 106.71557617 C6.28615728 110.76828671 6.32059246 114.8204199 6.36830902 118.87287331 C6.38312852 120.41774282 6.39104135 121.96269476 6.39188385 123.50763512 C6.39425373 125.67457766 6.4213306 127.83992486 6.45410156 130.0065918 C6.46298401 131.23903122 6.47186646 132.47147064 6.48101807 133.74125671 C7.09394762 137.58990721 8.29355756 139.24886101 11 142 C14.73880993 143.86940497 19.2972901 143.35669896 23.421875 143.5234375 C27.25473746 144.03392792 29.72952364 144.96014213 33 147 C35.24553216 150.76669911 36 153.23901235 36 157.625 C34.7354736 161.89277659 33.56567062 163.31563006 30 166 C26.46764311 166.76931931 23.04138934 166.76010417 19.4375 166.6875 C18.45257568 166.67460937 17.46765137 166.66171875 16.45288086 166.6484375 C6.32793486 166.28775665 -0.8420486 163.64432202 -8 156.1875 C-15.99636214 145.9482558 -16.15027376 135.21207359 -16.14526367 122.71240234 C-16.14862228 121.50167557 -16.1519809 120.29094879 -16.15544128 119.04353333 C-16.16327869 115.74410332 -16.16661667 112.44473626 -16.16725707 109.14530134 C-16.16797052 107.08081897 -16.17011029 105.01634309 -16.17275429 102.95186234 C-16.18198411 95.74134149 -16.18609173 88.53083906 -16.18530273 81.3203125 C-16.18470105 74.61057569 -16.19527659 67.90091904 -16.2110464 61.19120252 C-16.22413184 55.41689375 -16.22948628 49.64261117 -16.22884732 43.86828768 C-16.22859284 40.42527921 -16.23141742 36.98234223 -16.24202538 33.5393486 C-16.25352669 29.7024701 -16.2489534 25.86570153 -16.24291992 22.02880859 C-16.24853943 20.89410629 -16.25415894 19.75940399 -16.25994873 18.59031677 C-16.23456568 12.24555919 -15.97445985 7.1262281 -12.5 1.625 C-8.53361534 -0.95315003 -4.58172569 -0.87482788 0 0 Z " fill="#636363" transform="translate(725,78)"/>
<path d="M0 0 C2.75569447 2.18159145 4.43588747 3.87177494 6 7 C6.09831819 8.64624787 6.1334096 10.29644298 6.13803101 11.94561768 C6.14348434 12.9914653 6.14893768 14.03731293 6.15455627 15.11485291 C6.1555986 16.2670784 6.15664093 17.41930389 6.15771484 18.60644531 C6.16533592 20.42122124 6.16533592 20.42122124 6.17311096 22.2726593 C6.18383409 24.90764076 6.19282938 27.5425691 6.19923019 30.1775589 C6.20990666 34.34642249 6.23015153 38.51520481 6.25234985 42.684021 C6.31428278 54.53979765 6.36825657 66.39557011 6.40136719 78.25146484 C6.41972749 84.79695176 6.44868268 91.34230309 6.4893719 97.88769031 C6.5104217 101.35091462 6.52589622 104.81396818 6.52817917 108.27725983 C6.53073072 112.14364064 6.55621812 116.0096872 6.58349609 119.87597656 C6.58048996 121.02010513 6.57748383 122.1642337 6.5743866 123.34303284 C6.63319366 128.94716173 6.7312897 133.21432763 10 138 C15.24920566 142.85551523 19.4965926 143.14773723 26.39453125 143.2109375 C28.08920229 143.23901048 29.78386363 143.26767498 31.47851562 143.296875 C34.14460939 143.33808429 36.81052265 143.37498043 39.47680664 143.40136719 C42.05392723 143.42907046 44.63022899 143.47494368 47.20703125 143.5234375 C47.99785599 143.52669037 48.78868073 143.52994324 49.60346985 143.53329468 C54.43007276 143.63981504 57.84094591 144.29363365 62 147 C64.24553216 150.76669911 65 153.23901235 65 157.625 C63.74018903 161.87686203 62.53867456 163.31412997 59 166 C55.62299111 166.73648939 52.31696667 166.70105691 48.87109375 166.6640625 C47.8856105 166.66884613 46.90012726 166.67362976 45.88478088 166.67855835 C43.79939173 166.68195681 41.71394927 166.67275819 39.62866211 166.65185547 C36.47189878 166.62528949 33.31875647 166.65150146 30.16210938 166.68359375 C17.58442237 166.70447915 8.39105598 165.88088602 -2.3125 158.8125 C-12.49586931 148.15548561 -15.45919819 138.54528863 -15.40405273 124.03222656 C-15.41091599 122.76122604 -15.41777924 121.49022552 -15.42485046 120.18070984 C-15.44267836 116.72019933 -15.44163442 113.25994378 -15.43590808 109.79940128 C-15.43280404 106.90399522 -15.43892144 104.00863728 -15.44494683 101.1132381 C-15.45895353 94.28427239 -15.45746033 87.45543192 -15.44604492 80.62646484 C-15.43454052 73.58881992 -15.44868674 66.55155504 -15.4754414 59.51396012 C-15.49759739 53.45852171 -15.50423683 47.40320265 -15.49836498 41.34772658 C-15.49499718 37.73646786 -15.4973997 34.1254533 -15.51461601 30.51422882 C-15.53295627 26.49263869 -15.51889946 22.47179044 -15.50170898 18.45019531 C-15.51137695 17.25736435 -15.52104492 16.06453339 -15.53100586 14.83555603 C-15.45867676 6.77369464 -15.45867676 6.77369464 -13.09364319 2.78436279 C-9.08857459 -0.62906287 -5.10849087 -0.81171185 0 0 Z " fill="#676767" transform="translate(366,78)"/>
<path d="M0 0 C5.79835896 4.81437438 11.12281785 9.99248432 16.43359375 15.3359375 C17.31153091 16.21528961 18.18946808 17.09464172 19.0940094 18.00064087 C21.87754412 20.78974058 24.65756769 23.58231018 27.4375 26.375 C29.33216665 28.2752542 31.2275963 30.17474653 33.12304688 32.07421875 C37.75135161 36.71350604 42.37678421 41.35564167 47 46 C47.66 45.67 48.32 45.34 49 45 C50.4826917 45.58776026 51.93745076 46.24663896 53.375 46.9375 C61.27089168 50.21890953 69.83721084 50.28162126 77.80200195 47.03979492 C87.13222837 42.62599571 94.15162836 34.01400031 101.25 26.75 C103.56189067 24.38481657 105.88041317 22.02642684 108.203125 19.671875 C108.72610168 19.13230164 109.24907837 18.59272827 109.78790283 18.0368042 C114.19650175 13.56929704 117.09821111 11.71291021 123.375 11.625 C128.43154076 11.73915829 131.16066842 12.51781555 135 16 C135.81984375 16.72896484 135.81984375 16.72896484 136.65625 17.47265625 C140.49636872 21.30371809 142.14348263 24.82197764 142.22387695 30.28393555 C141.35546016 40.81952636 132.46819482 48.27242956 125.37402344 55.22290039 C123.51594591 57.046847 121.68288868 58.89337936 119.8515625 60.74414062 C112.45299944 68.13711077 104.97124426 74.57402372 96 80 C95.11916748 80.54301758 94.23833496 81.08603516 93.33081055 81.64550781 C85.28690565 85.96841755 77.16423249 85.57450258 68.3125 85.3125 C66.82100139 85.28735783 65.32946143 85.2645552 63.83789062 85.24414062 C60.22438495 85.18967751 56.61246671 85.10374231 53 85 C53 84.34 53 83.68 53 83 C52.030625 82.9175 51.06125 82.835 50.0625 82.75 C43.00804566 81.73610069 36.65746633 78.20683394 31 74 C31 73.67 31 73.34 31 73 C33.64 73 36.28 73 39 73 C39 72.34 39 71.68 39 71 C39.9075 70.62875 40.815 70.2575 41.75 69.875 C45.66519184 67.61623547 47.06714974 66.08872169 49 62 C49.7406691 58.46256437 49.72410461 55.53929723 49 52 C47.78210337 50.03304859 47.78210337 50.03304859 46.07397461 48.29833984 C45.4373288 47.61036316 44.80068298 46.92238647 44.14474487 46.21356201 C40.18598601 42.12778084 36.17782529 38.09801998 32.12890625 34.1015625 C30.72008913 32.70215191 29.31127759 31.30273564 27.90280819 29.90297508 C24.45967005 26.48266562 21.01092743 23.0680225 17.55981445 19.65576172 C15.60919463 17.72668722 13.66122578 15.79500604 11.71604919 13.86044312 C9.88959082 12.04436058 8.05901127 10.23241185 6.22401428 8.42495728 C5.40573654 7.61005829 4.5874588 6.7951593 3.74438477 5.95556641 C2.65686668 4.87923447 2.65686668 4.87923447 1.54737854 3.78115845 C0 2 0 2 0 0 Z M114 15 C115 17 115 17 115 17 Z M139 25 C140 28 140 28 140 28 Z M140 28 C141 32 141 32 141 32 Z M139 33 C140 35 140 35 140 35 Z M138 36 C139 38 139 38 139 38 Z M50 47 C51 49 51 49 51 49 Z " fill="#F49B19" transform="translate(112,194)"/>
<path d="M0 0 C2.98391779 0.68691194 5.22391897 1.26769594 7.79248047 2.87304688 C7.79248047 3.53304687 7.79248047 4.19304687 7.79248047 4.87304688 C8.66130859 4.61652344 9.53013672 4.36 10.42529297 4.09570312 C14.14313993 3.84985942 15.30871094 4.44764271 18.08007812 6.83300781 C18.6039209 7.3205957 19.12776367 7.80818359 19.66748047 8.31054688 C20.23901855 8.82262695 20.81055664 9.33470703 21.39941406 9.86230469 C23.56161961 11.83478486 25.67884478 13.84855597 27.79248047 15.87304688 C28.25936279 16.31908264 28.72624512 16.76511841 29.20727539 17.22467041 C32.42276398 20.30148879 35.61526218 23.40053535 38.78814697 26.52127075 C39.86672122 27.58160277 40.94786749 28.63932541 42.03167725 29.69430542 C55.00580715 42.36633365 55.00580715 42.36633365 56.29248047 51.37304688 C55.30017953 58.31915341 52.25192308 63.36730953 46.70654297 67.67382812 C42.82982201 70.10271248 39.23901449 71.31865015 34.65751648 70.48419189 C28.70026024 68.63282477 25.22794396 66.05369077 21.06201172 61.48242188 C19.83356434 60.20240846 18.60504643 58.92246273 17.37646484 57.64257812 C15.49355917 55.64231108 13.61721055 53.63617083 11.74438477 51.62646484 C1.52263476 40.72164811 -8.43190608 31.3902801 -24.20751953 30.87304688 C-25.19751953 30.54304688 -26.18751953 30.21304688 -27.20751953 29.87304688 C-29.54812603 30.15074595 -31.88376261 30.47844664 -34.20751953 30.87304688 C-29.05622923 24.67010907 -23.5641039 18.80919928 -17.94042969 13.03613281 C-16.86302698 11.9217588 -15.79469067 10.7985516 -14.73535156 9.66699219 C-13.18744336 8.01569954 -11.61195367 6.39578733 -10.02783203 4.77929688 C-9.33054489 4.01703796 -9.33054489 4.01703796 -8.61917114 3.23937988 C-5.76354194 0.39954972 -3.89874411 -0.4378251 0 0 Z M23.79248047 13.87304688 C24.79248047 15.87304688 24.79248047 15.87304688 24.79248047 15.87304688 Z M52.79248047 46.87304688 C53.79248047 48.87304688 53.79248047 48.87304688 53.79248047 48.87304688 Z M53.79248047 49.87304688 C54.79248047 53.87304688 54.79248047 53.87304688 54.79248047 53.87304688 Z M52.79248047 54.87304688 C53.79248047 56.87304688 53.79248047 56.87304688 53.79248047 56.87304688 Z " fill="#F9A01B" transform="translate(198.20751953125,74.126953125)"/>
<path d="M0 0 C0.99 0.495 0.99 0.495 2 1 C0.47733898 4.59331077 -1.63898432 6.87895663 -4.39634705 9.6166687 C-5.32031784 10.53905334 -6.24428864 11.46143799 -7.19625854 12.41177368 C-8.22312523 13.42677806 -9.25007505 14.44169833 -10.27709961 15.45654297 C-11.35670804 16.5306749 -12.43585418 17.60527165 -13.51457214 18.68029785 C-15.83736553 20.99338318 -18.1631798 23.30337249 -20.49131584 25.61108017 C-24.1737377 29.26167741 -27.84797958 32.92043287 -31.52088928 36.58059692 C-40.64572253 45.67134917 -49.77980105 54.75279703 -58.91876221 63.8293457 C-66.0199723 70.88208565 -73.1179618 77.93799247 -80.20545012 85.0045253 C-83.8545548 88.64211678 -87.51049017 92.27265558 -91.17171657 95.89804435 C-93.45028008 98.15738773 -95.72253904 100.42299075 -97.99310493 102.69036865 C-99.04542537 103.73867707 -100.1003245 104.78440441 -101.15800476 105.82730484 C-102.60450447 107.25431897 -104.04083531 108.69161874 -105.47666931 110.12936401 C-106.28248412 110.92981581 -107.08829893 111.7302676 -107.91853237 112.55497551 C-110.17481389 115.20534753 -111.57180188 117.8373814 -113 121 C-113.66 121 -114.32 121 -115 121 C-116.43850532 123.5687595 -117.21998727 125.81120304 -118 128.6875 C-118.33 129.780625 -118.66 130.87375 -119 132 C-119.66 132.33 -120.32 132.66 -121 133 C-121.46523063 134.89533342 -121.46523063 134.89533342 -121.625 137.0625 C-121.74875 138.361875 -121.8725 139.66125 -122 141 C-122.66 141 -123.32 141 -124 141 C-125.17075473 131.29946083 -120.96722443 123.19756436 -115.17277431 115.6061039 C-109.57209897 108.68865224 -103.58812666 102.30687167 -97.27954102 96.03662109 C-96.2367159 94.99271973 -95.19432469 93.94838477 -94.15232849 92.90365601 C-91.3557031 90.10223894 -88.55296091 87.30702005 -85.74883389 84.51311445 C-82.80497744 81.5781164 -79.86646953 78.63777176 -76.92723083 75.69815063 C-72.00250004 70.77435193 -67.07393644 65.85441712 -62.14282227 60.93701172 C-56.44016875 55.25015322 -50.7428295 49.55801426 -45.04843384 43.86288774 C-38.97359661 37.78737616 -32.89496562 31.71567137 -26.8151958 25.6450963 C-25.06531759 23.89735017 -23.31615189 22.14889362 -21.56714058 20.40028 C-18.8271568 17.66129808 -16.08464642 14.92487131 -13.34012794 12.1904335 C-12.33224463 11.18547769 -11.32521224 10.17966766 -10.31908035 9.17295837 C-8.9497368 7.80312623 -7.57702141 6.43666716 -6.20411682 5.07040405 C-5.05189558 3.92069657 -5.05189558 3.92069657 -3.87639713 2.74776268 C-2 1 -2 1 0 0 Z M-120 126 C-119 128 -119 128 -119 128 Z M-121 128 C-120 130 -120 130 -120 130 Z M-123 134 C-122 136 -122 136 -122 136 Z " fill="#191816" transform="translate(198,22)"/>
<path d="M0 0 C0 3 0 3 -1.8359375 5.17651367 C-2.67382812 5.99869385 -3.51171875 6.82087402 -4.375 7.66796875 C-5.27734375 8.56064453 -6.1796875 9.45332031 -7.109375 10.37304688 C-8.0727573 11.31136157 -9.03630108 12.2495105 -10 13.1875 C-10.96422346 14.13667769 -11.92777392 15.08653956 -12.890625 16.03710938 C-15.25378641 18.36482337 -17.62605537 20.68328439 -20 23 C-16.04 24.98 -12.08 26.96 -8 29 C-8.99 30.485 -8.99 30.485 -10 32 C-10.66 31.67 -11.32 31.34 -12 31 C-12 30.34 -12 29.68 -12 29 C-16.20114175 27.39956505 -19.51735992 26.36146664 -24 27 C-26.62977609 28.80166189 -28.73869379 31.0403048 -30.9296875 33.34375 C-31.56488312 33.9874353 -32.20007874 34.63112061 -32.85452271 35.29431152 C-34.87588415 37.34920303 -36.87536924 39.42397778 -38.875 41.5 C-40.24339943 42.89849904 -41.61317631 44.29565171 -42.984375 45.69140625 C-46.3390878 49.11219853 -49.67433289 52.5509726 -53 56 C-52.0807373 55.83701416 -51.16147461 55.67402832 -50.21435547 55.50610352 C-46.7949338 54.96771212 -43.58393654 54.90220473 -40.125 54.9375 C-38.97257812 54.94652344 -37.82015625 54.95554688 -36.6328125 54.96484375 C-35.76398438 54.97644531 -34.89515625 54.98804688 -34 55 C-34.66 55.99 -35.32 56.98 -36 58 C-38.5390625 58.40625 -38.5390625 58.40625 -41.625 58.5 C-56.16245438 59.43678107 -63.37916498 68.21175531 -73.20703125 78.1796875 C-74.94453103 79.929817 -76.68216509 81.67981319 -78.41992188 83.4296875 C-81.13203603 86.16674234 -83.84251447 88.90538112 -86.55053711 91.64648438 C-89.18170384 94.30772023 -91.81894553 96.96281292 -94.45703125 99.6171875 C-95.26952835 100.44314423 -96.08202545 101.26910095 -96.91914368 102.12008667 C-98.05128548 103.2572966 -98.05128548 103.2572966 -99.20629883 104.41748047 C-99.86833817 105.08697723 -100.5303775 105.756474 -101.21247864 106.44625854 C-103 108 -103 108 -106 109 C-107.46293963 111.31869204 -107.46293963 111.31869204 -108.6875 114.0625 C-109.12449219 114.98160156 -109.56148438 115.90070313 -110.01171875 116.84765625 C-110.33785156 117.55792969 -110.66398437 118.26820313 -111 119 C-111.89536379 116.56965987 -112.18903668 115.4412662 -111.1511898 113.01863194 C-106.62405348 106.41785044 -101.26663021 100.86131485 -95.58837891 95.24780273 C-94.54252703 94.20279882 -93.49733875 93.15713042 -92.45275879 92.1108551 C-89.63756447 89.294806 -86.81326939 86.48805242 -83.98715258 83.68297076 C-81.02690948 80.74158123 -78.07525528 77.79159751 -75.12265015 74.84254456 C-69.54021618 69.26940568 -63.95018464 63.70395338 -58.35733068 58.14127356 C-51.98617968 51.80374581 -45.62362477 45.45761754 -39.26175046 39.11077964 C-26.18399119 26.06431189 -13.09556359 13.02859512 0 0 Z " fill="#242424" transform="translate(218,48)"/>
<path d="M0 0 C0.9787912 -0.00137466 1.9575824 -0.00274933 2.96603394 -0.00416565 C4.58227661 0.00122726 4.58227661 0.00122726 6.23117065 0.00672913 C7.36287689 0.0065831 8.49458313 0.00643707 9.6605835 0.00628662 C13.41573986 0.00698544 17.17084713 0.01477645 20.92599487 0.02259827 C23.52388482 0.02446255 26.12177511 0.02588641 28.71966553 0.02688599 C34.8678202 0.03031906 41.0159545 0.03820721 47.16410148 0.04823548 C54.16280305 0.05940385 61.16150545 0.06490889 68.16021371 0.06993091 C82.5587128 0.08039001 96.95719696 0.09798495 111.35568237 0.12025452 C111.35568237 0.78025452 111.35568237 1.44025452 111.35568237 2.12025452 C108.5114196 3.06834211 106.75591657 3.24787234 103.80784607 3.25396729 C102.87553162 3.25823227 101.94321716 3.26249725 100.98265076 3.26689148 C99.4513578 3.2662117 99.4513578 3.2662117 97.88912964 3.26551819 C96.8124704 3.2688768 95.73581116 3.27223541 94.62652588 3.2756958 C91.05836848 3.28521474 87.49025794 3.28714933 83.92208862 3.28822327 C81.4473112 3.29143498 78.97253397 3.29479898 76.49775696 3.29830933 C71.30675822 3.30430281 66.11577613 3.30614898 60.92477417 3.30555725 C54.26532157 3.30545557 47.6060127 3.31911322 40.94657993 3.33632946 C35.83457445 3.34743417 30.72259485 3.34947694 25.61057854 3.34894753 C23.15493337 3.35012974 20.69928758 3.35456497 18.24365425 3.36227989 C14.81290292 3.37204968 11.38238451 3.36921365 7.95162964 3.36317444 C6.9327919 3.36879395 5.91395416 3.37441345 4.86424255 3.38020325 C3.92910828 3.37600876 2.993974 3.37181427 2.03050232 3.36749268 C1.21953378 3.36803744 0.40856524 3.36858221 -0.42697811 3.36914349 C-2.88260638 3.0935074 -4.51659709 2.34686948 -6.64431763 1.12025452 C-4.22337297 -0.09021781 -2.70487443 -0.00292103 0 0 Z " fill="#606060" transform="translate(169.64431762695313,190.87974548339844)"/>
<path d="M0 0 C1.92718506 -0.37752342 1.92718506 -0.37752342 4.32714844 -0.38095093 C5.23573608 -0.3894104 6.14432373 -0.39786987 7.08044434 -0.40658569 C8.07999146 -0.400513 9.07953857 -0.39444031 10.109375 -0.38818359 C11.68507263 -0.39606903 11.68507263 -0.39606903 13.29260254 -0.40411377 C16.77855121 -0.41735999 20.26404637 -0.40855914 23.75 -0.3984375 C26.16373788 -0.4004569 28.57747516 -0.40336721 30.99121094 -0.40713501 C36.0553975 -0.41156464 41.11942557 -0.40510664 46.18359375 -0.39111328 C52.6875266 -0.37402123 59.19108811 -0.38385897 65.69500732 -0.40183067 C70.68085549 -0.41265117 75.66661505 -0.40923012 80.65246582 -0.4014473 C83.0511479 -0.39944049 85.44983793 -0.40192129 87.84851074 -0.40888596 C91.19610014 -0.41647182 94.54308113 -0.40493608 97.890625 -0.38818359 C98.89017212 -0.39425629 99.88971924 -0.40032898 100.91955566 -0.40658569 C102.28243713 -0.39389648 102.28243713 -0.39389648 103.67285156 -0.38095093 C104.86083344 -0.37925431 104.86083344 -0.37925431 106.07281494 -0.37752342 C107.02677155 -0.19064933 107.02677155 -0.19064933 108 0 C108.99 1.485 108.99 1.485 110 3 C73.04 3 36.08 3 -2 3 C-1.34 2.01 -0.68 1.02 0 0 Z " fill="#BBBBBB" transform="translate(168,188)"/>
<path d="M0 0 C0.99 0.99 0.99 0.99 2 2 C-5.26108661 9.30734492 -12.52750484 16.60934087 -19.80085564 23.90447998 C-23.17767838 27.29175788 -26.55260829 30.68087851 -29.92333984 34.07421875 C-33.1738927 37.34643831 -36.42924978 40.61380535 -39.68805313 43.87780762 C-40.93299286 45.12645423 -42.17616556 46.37686509 -43.41756821 47.62902832 C-45.15123172 49.37712469 -46.89096653 51.11894791 -48.63232422 52.859375 C-49.14877502 53.38301636 -49.66522583 53.90665771 -50.19732666 54.44616699 C-53.77189568 58 -53.77189568 58 -56 58 C-56.33 58.99 -56.66 59.98 -57 61 C-60.09547061 64.35342649 -63.44505158 67.15604126 -67 70 C-69.64407254 72.51186892 -72.02560922 75.03183849 -74.3125 77.875 C-76.20769632 80.19224196 -78.21256432 82.10948822 -80.5 84.0390625 C-85.79635362 88.62428972 -90.73407358 93.55007423 -95.6875 98.5 C-96.61111328 99.41136719 -97.53472656 100.32273437 -98.48632812 101.26171875 C-103.16089581 105.92619018 -107.38811254 110.46430722 -111 116 C-111.66 115.67 -112.32 115.34 -113 115 C-107.31113862 107.53949805 -101.10615555 100.82764856 -94.453125 94.22607422 C-93.41704507 93.19055997 -92.38140836 92.15460209 -91.34617615 91.11824036 C-88.56400616 88.33550195 -85.77576073 85.55892709 -82.98629379 82.78350592 C-80.06121785 79.87102349 -77.14189186 76.95278859 -74.22192383 74.03518677 C-68.70485301 68.52430557 -63.18270888 63.01853784 -57.65867519 57.51463711 C-51.36441951 51.24281924 -45.07591454 44.96524862 -38.78786087 38.68721366 C-25.86491466 25.78511235 -12.93484628 12.89017046 0 0 Z " fill="#010100" transform="translate(195,24)"/>
<path d="M0 0 C1.12250656 -0.00686325 2.24501312 -0.0137265 3.40153503 -0.02079773 C7.11165012 -0.03909724 10.82134361 -0.03522356 14.53149414 -0.02954102 C17.11072426 -0.03410126 19.68995317 -0.03940637 22.2691803 -0.04542542 C27.67527789 -0.05436274 33.08121364 -0.05216005 38.48730469 -0.04199219 C44.72847684 -0.03051279 50.9692192 -0.04458531 57.21033472 -0.07138866 C63.22409934 -0.09624469 69.23764333 -0.09871906 75.25146675 -0.0922718 C77.80594154 -0.09211838 80.36042453 -0.09818023 82.91486931 -0.11056328 C86.48654033 -0.12543768 90.05726487 -0.11482091 93.62890625 -0.09765625 C94.68416504 -0.10732422 95.73942383 -0.11699219 96.82666016 -0.12695312 C104.45675008 -0.05015637 107.70717039 1.39901905 113.25415039 6.65405273 C114.05852539 7.52030273 114.05852539 7.52030273 114.87915039 8.40405273 C114.54915039 9.06405273 114.21915039 9.72405273 113.87915039 10.40405273 C113.15598633 9.77176758 113.15598633 9.77176758 112.41821289 9.12670898 C111.78657227 8.57885742 111.15493164 8.03100586 110.50415039 7.46655273 C109.87766602 6.9212793 109.25118164 6.37600586 108.60571289 5.81420898 C105.72952882 3.46510842 103.92481658 3.27531628 100.28193665 3.25688171 C98.82892403 3.24614876 98.82892403 3.24614876 97.34655762 3.23519897 C95.74681091 3.23116562 95.74681091 3.23116562 94.11474609 3.22705078 C92.99428391 3.22047958 91.87382172 3.21390839 90.71940613 3.20713806 C86.99791401 3.18736909 83.27646233 3.17573382 79.55493164 3.16577148 C78.28572561 3.16169596 77.01651958 3.15762043 75.70885277 3.1534214 C69.6833766 3.13469886 63.65792502 3.12013756 57.63242751 3.11180943 C50.68376132 3.10204636 43.73541448 3.07575326 36.78686076 3.03530854 C30.76406539 3.00145953 24.74142447 2.98966016 18.71852684 2.98560524 C16.15928166 2.98073159 13.60004007 2.96909562 11.04085732 2.95056725 C7.4571554 2.92623639 3.87428646 2.92713047 0.29052734 2.93408203 C-0.7658493 2.92127197 -1.82222595 2.90846191 -2.91061401 2.89526367 C-9.19949522 2.93969793 -12.95620929 3.75197179 -18.12084961 7.40405273 C-17.18271406 4.93078629 -16.25564545 3.51916739 -14.23387146 1.79258728 C-9.54182364 -0.30025716 -5.08282787 -0.02164142 0 0 Z " fill="#3F3F3F" transform="translate(175.120849609375,156.595947265625)"/>
<path d="M0 0 C5.79835896 4.81437438 11.12281785 9.99248432 16.43359375 15.3359375 C17.31153091 16.21528961 18.18946808 17.09464172 19.0940094 18.00064087 C21.87754412 20.78974058 24.65756769 23.58231018 27.4375 26.375 C29.33216665 28.2752542 31.2275963 30.17474653 33.12304688 32.07421875 C37.75135161 36.71350604 42.37678421 41.35564167 47 46 C47.66 45.67 48.32 45.34 49 45 C50.4826917 45.58776026 51.93745076 46.24663896 53.375 46.9375 C62.23329747 50.63165291 70.94417596 49.41488641 80 47 C80 47.66 80 48.32 80 49 C78.68 49.33 77.36 49.66 76 50 C76 50.66 76 51.32 76 52 C72.41369775 53.19543408 69.10995149 53.22238483 65.375 53.25 C64.70082031 53.270625 64.02664062 53.29125 63.33203125 53.3125 C53.86352894 53.38436719 47.90742188 50.52791601 41.13349438 43.87129688 C39.61898632 42.34986902 38.11980891 40.81431865 36.62109375 39.27734375 C35.55895807 38.20908326 34.49562842 37.1420087 33.4311676 36.07606506 C31.21587641 33.85161639 29.010713 31.61777538 26.81323242 29.37573242 C23.99231511 26.49790752 21.15400795 23.63804535 18.30895901 20.78409481 C16.11956141 18.58640433 13.93588356 16.38311028 11.75428963 14.17767525 C10.70858522 13.12056265 9.66192941 12.06439034 8.61431694 11.00916862 C7.15866629 9.53982863 5.71002013 8.06394526 4.26342773 6.58569336 C3.43785873 5.74646835 2.61228973 4.90724335 1.76170349 4.04258728 C0 2 0 2 0 0 Z M50 47 C51 49 51 49 51 49 Z " fill="#968367" transform="translate(112,194)"/>
<path d="M0 0 C0 3 0 3 -1.8359375 5.17651367 C-2.67382812 5.99869385 -3.51171875 6.82087402 -4.375 7.66796875 C-5.27734375 8.56064453 -6.1796875 9.45332031 -7.109375 10.37304688 C-8.0727573 11.31136157 -9.03630108 12.2495105 -10 13.1875 C-10.96422346 14.13667769 -11.92777392 15.08653956 -12.890625 16.03710938 C-15.25378641 18.36482337 -17.62605537 20.68328439 -20 23 C-16.04 24.98 -12.08 26.96 -8 29 C-8.66 29.99 -9.32 30.98 -10 32 C-10.66 31.67 -11.32 31.34 -12 31 C-12 30.34 -12 29.68 -12 29 C-16.20114175 27.39956505 -19.51735992 26.36146664 -24 27 C-26.62977609 28.80166189 -28.73869379 31.0403048 -30.9296875 33.34375 C-31.56488312 33.9874353 -32.20007874 34.63112061 -32.85452271 35.29431152 C-34.87588415 37.34920303 -36.87536924 39.42397778 -38.875 41.5 C-40.24339943 42.89849904 -41.61317631 44.29565171 -42.984375 45.69140625 C-46.3390878 49.11219853 -49.67433289 52.5509726 -53 56 C-52.0807373 55.83701416 -51.16147461 55.67402832 -50.21435547 55.50610352 C-46.7949338 54.96771212 -43.58393654 54.90220473 -40.125 54.9375 C-38.97257812 54.94652344 -37.82015625 54.95554688 -36.6328125 54.96484375 C-35.76398438 54.97644531 -34.89515625 54.98804688 -34 55 C-34.66 55.99 -35.32 56.98 -36 58 C-38.609375 58.4765625 -38.609375 58.4765625 -41.75 58.625 C-45.90257799 58.86956289 -49.90846783 59.2044243 -54 60 C-54 59.34 -54 58.68 -54 58 C-55.485 58.495 -55.485 58.495 -57 59 C-55.40752446 55.06532451 -52.69337631 52.42422224 -49.72412109 49.49707031 C-49.18738266 48.96003983 -48.65064423 48.42300934 -48.09764099 47.8697052 C-46.32760717 46.10106141 -44.55060143 44.33960176 -42.7734375 42.578125 C-41.54274656 41.35116534 -40.3124973 40.12376251 -39.08267212 38.89593506 C-35.84843484 35.66932512 -32.60823592 32.44876709 -29.36676025 29.22943115 C-26.05859466 25.94174328 -22.75610054 22.64836932 -19.453125 19.35546875 C-12.97428921 12.89806702 -6.48914131 6.44704432 0 0 Z " fill="#D79118" transform="translate(218,48)"/>
<path d="M0 0 C7.74377022 2.17793537 13.30914937 9.24175105 18.6796875 14.86328125 C19.70174771 15.92520259 20.72388426 16.98705047 21.74609375 18.04882812 C23.31854392 19.6829671 24.88372948 21.32185262 26.43115234 22.97973633 C34.18455233 31.43777988 34.18455233 31.43777988 44.81762695 35.07104492 C49.42493274 34.9210588 53.21238879 33.75577081 56.53515625 30.4921875 C57.74162521 29.03598298 58.87597225 27.52074343 60 26 C60.66 25.67 61.32 25.34 62 25 C61.35348677 30.29048148 59.25559243 32.20908676 55.2421875 35.47265625 C51.25698243 38.18731684 47.70974329 39.50103526 42.87731934 38.60751343 C36.87282296 36.75049821 33.3322425 34.10711892 29.09375 29.5390625 C28.48414429 28.91148041 27.87453857 28.28389832 27.24645996 27.63729858 C25.31584194 25.64713288 23.40645196 23.6383061 21.5 21.625 C19.59192883 19.62063003 17.67939804 17.62141811 15.75354004 15.63412476 C14.56171869 14.40341741 13.3798089 13.16299618 12.21032715 11.91104126 C7.97734061 7.52692086 3.44592856 4.70495755 -2 2 C-1.34 1.34 -0.68 0.68 0 0 Z " fill="#583F0A" transform="translate(190,106)"/>
<path d="M0 0 C0.66 0 1.32 0 2 0 C2.33 3.63 2.66 7.26 3 11 C3 7.37 3 3.74 3 0 C3.33 0 3.66 0 4 0 C4.07476562 0.89460937 4.14953125 1.78921875 4.2265625 2.7109375 C4.35804687 3.92007813 4.48953125 5.12921875 4.625 6.375 C4.74101563 7.55835938 4.85703125 8.74171875 4.9765625 9.9609375 C6.96912266 20.16564655 15.09001873 27.63847063 22.2109375 34.6015625 C23.18973213 35.57287583 24.16763191 36.54509165 25.14468384 37.51815796 C27.69055559 40.04892183 30.24821104 42.56742769 32.80871582 45.08337402 C35.4306402 47.66402113 38.04095832 50.25635285 40.65234375 52.84765625 C45.75708796 57.9097925 50.87436724 62.95900596 56 68 C55.67 68.66 55.34 69.32 55 70 C54.43037033 69.42592911 53.86074066 68.85185822 53.27384949 68.26039124 C47.90839089 62.85488167 42.53815588 57.45418456 37.16247082 52.05884647 C34.39885657 49.28478883 31.63713607 46.50889889 28.87963867 43.72875977 C26.21913233 41.046545 23.55378992 38.36922548 20.88500404 35.69524956 C19.86696423 34.6735104 18.85068827 33.65001068 17.83620262 32.62474251 C16.41654065 31.19059283 14.99003958 29.76322289 13.56323242 28.33618164 C12.7527092 27.52121719 11.94218597 26.70625275 11.10710144 25.86659241 C9.05057299 23.79887983 9.05057299 23.79887983 6 23 C6 22.34 6 21.68 6 21 C5.34 21 4.68 21 4 21 C3.525625 19.88625 3.05125 18.7725 2.5625 17.625 C1.74693537 15.73289006 0.92143645 13.84287291 0 12 C-0.07065617 9.95944995 -0.08421976 7.91665743 -0.0625 5.875 C-0.05347656 4.77929688 -0.04445313 3.68359375 -0.03515625 2.5546875 C-0.02355469 1.71164063 -0.01195313 0.86859375 0 0 Z " fill="#302D2B" transform="translate(104,171)"/>
<path d="M0 0 C0.66 0.33 1.32 0.66 2 1 C-1.73603696 4.83635397 -5.4861194 8.65825953 -9.2487793 12.46850586 C-10.52175241 13.76135666 -11.79108662 15.05780254 -13.05639648 16.3581543 C-38.63197794 42.62304988 -38.63197794 42.62304988 -52.23828125 43.07421875 C-54.1875 42.8125 -54.1875 42.8125 -57 42 C-53.88620432 40.37317058 -50.70879676 39.08878489 -47.4375 37.8125 C-41.12874432 35.20888654 -35.63011162 31.82471109 -30 28 C-29.07735352 27.42032471 -28.15470703 26.84064941 -27.20410156 26.2434082 C-23.84879543 23.89413145 -21.01741734 21.27235287 -18.1640625 18.359375 C-17.37773941 17.56880707 -17.37773941 17.56880707 -16.57553101 16.76226807 C-14.92055166 15.09619309 -13.27270711 13.42326417 -11.625 11.75 C-10.49656019 10.61151665 -9.36765819 9.47349122 -8.23828125 8.3359375 C-5.48681792 5.56255488 -2.74172617 2.78300766 0 0 Z " fill="#53460F" transform="translate(247,236)"/>
<path d="M0 0 C2.4401785 4.50494492 4.03295942 9.35739406 5.7890625 14.15625 C7.86994704 20.33069697 7.86994704 20.33069697 11.5625 25.5625 C13 27 13 27 14 30 C14.66 30.33 15.32 30.66 16 31 C16 31.66 16 32.32 16 33 C12.99111394 32.6792558 11.43813929 32.4711286 9.33984375 30.21484375 C7.86693327 27.82290277 6.40372631 25.43338271 5 23 C4.59265625 22.32066406 4.1853125 21.64132813 3.765625 20.94140625 C0.0572959 14.26372668 -0.19301225 7.52747772 0 0 Z M1 9 C2 11 2 11 2 11 Z M2 12 C3 14 3 14 3 14 Z M3 15 C4 17 4 17 4 17 Z M4 17 C5 19 5 19 5 19 Z " fill="#37302A" transform="translate(74,183)"/>
<path d="M0 0 C-1.19445929 3.58337787 -2.5306177 4.55939437 -5.375 7 C-11.17714409 12.08945298 -16.59251909 17.49999566 -22 23 C-22.66 22.67 -23.32 22.34 -24 22 C-21.64408059 16.57080901 -17.2465049 12.87795483 -13.125 8.75 C-12.30902344 7.90953125 -11.49304688 7.0690625 -10.65234375 6.203125 C-9.86214844 5.4090625 -9.07195312 4.615 -8.2578125 3.796875 C-7.17717529 2.70391113 -7.17717529 2.70391113 -6.07470703 1.58886719 C-4 0 -4 0 0 0 Z " fill="#232220" transform="translate(164,106)"/>
<path d="M0 0 C0.825 0.309375 1.65 0.61875 2.5 0.9375 C6.39126155 2.11877583 9.96166953 2.58224168 14 3 C14 3.33 14 3.66 14 4 C11.69 4.33 9.38 4.66 7 5 C11.74594565 8.81739107 15.76851774 10.80987148 21.66796875 12.32421875 C23.95864313 12.98801551 25.90630267 13.86892213 28 15 C22.21724776 16.34189507 18.80012368 15.51316444 13.75 12.6875 C13.13898438 12.36587891 12.52796875 12.04425781 11.8984375 11.71289062 C9.16694098 10.26066486 6.57525083 8.71683389 4 7 C4 5.68 4 4.36 4 3 C3.01 3 2.02 3 1 3 C0.67 2.01 0.34 1.02 0 0 Z " fill="#673810" transform="translate(137,263)"/>
<path d="M0 0 C0 3 0 3 -1.8359375 5.17651367 C-2.67382812 5.99869385 -3.51171875 6.82087402 -4.375 7.66796875 C-5.27734375 8.56064453 -6.1796875 9.45332031 -7.109375 10.37304688 C-8.0727573 11.31136157 -9.03630108 12.2495105 -10 13.1875 C-10.96422346 14.13667769 -11.92777392 15.08653956 -12.890625 16.03710938 C-15.25378641 18.36482337 -17.62605537 20.68328439 -20 23 C-16.04 24.98 -12.08 26.96 -8 29 C-8.66 29.99 -9.32 30.98 -10 32 C-10.66 31.67 -11.32 31.34 -12 31 C-12 30.34 -12 29.68 -12 29 C-12.69867188 28.80664062 -13.39734375 28.61328125 -14.1171875 28.4140625 C-15.02726563 28.15367188 -15.93734375 27.89328125 -16.875 27.625 C-18.23238281 27.24214844 -18.23238281 27.24214844 -19.6171875 26.8515625 C-22 26 -22 26 -24 24 C-16.08 16.08 -8.16 8.16 0 0 Z " fill="#3F3F3E" transform="translate(218,48)"/>
<path d="M0 0 C0 4.24645065 -1.81750806 6.38524772 -4 10 C-4.66 10 -5.32 10 -6 10 C-7.43850532 12.5687595 -8.21998727 14.81120304 -9 17.6875 C-9.33 18.780625 -9.66 19.87375 -10 21 C-10.66 21.33 -11.32 21.66 -12 22 C-12.46523063 23.89533342 -12.46523063 23.89533342 -12.625 26.0625 C-12.74875 27.361875 -12.8725 28.66125 -13 30 C-13.66 30 -14.32 30 -15 30 C-15.81856781 21.81432188 -13.5592875 15.83398626 -9 9 C-7.37544808 7.61566384 -5.71144116 6.27535278 -4 5 C-2.62631655 3.36643049 -1.28062485 1.7074998 0 0 Z M-11 15 C-10 17 -10 17 -10 17 Z M-12 17 C-11 19 -11 19 -11 19 Z M-14 23 C-13 25 -13 25 -13 25 Z " fill="#3F3D3B" transform="translate(89,133)"/>
<path d="M0 0 C15.06842696 -1.22039004 15.06842696 -1.22039004 19.65234375 1.67578125 C23.38424584 5.99153272 25.14022965 9.82387935 25.1875 15.5625 C25.20167969 16.34753906 25.21585938 17.13257812 25.23046875 17.94140625 C25 20 25 20 23 22 C23 18.7 23 15.4 23 12 C22.34 12 21.68 12 21 12 C20.195625 10.3603125 20.195625 10.3603125 19.375 8.6875 C17.14239152 4.8712073 15.33691736 3.34050173 11 2 C7.31772269 1.77652386 3.68332405 1.82304315 0 2 C0 1.34 0 0.68 0 0 Z " fill="#2F2F2F" transform="translate(201,22)"/>
<path d="M0 0 C0.66 0 1.32 0 2 0 C1.35352253 5.29018891 -0.7474873 7.2030789 -4.75 10.4765625 C-8.62181289 13.09810248 -12.24419472 14.36708603 -17.0234375 13.73046875 C-18.9375 13.25 -18.9375 13.25 -22 12 C-22.33 11.34 -22.66 10.68 -23 10 C-22.05640625 10.05220703 -22.05640625 10.05220703 -21.09375 10.10546875 C-14.5842314 10.31134208 -8.38496819 10.16259801 -3.39453125 5.5 C-1.00147375 3.06627115 -1.00147375 3.06627115 0 0 Z " fill="#864305" transform="translate(250,131)"/>
<path d="M0 0 C0.66 0.33 1.32 0.66 2 1 C-0.78648495 3.88257064 -3.37965619 6.1898281 -7 8 C-7.46751788 10.35599235 -7.46751788 10.35599235 -7.625 13.0625 C-7.69976562 13.98160156 -7.77453125 14.90070313 -7.8515625 15.84765625 C-7.90054688 16.55792969 -7.94953125 17.26820313 -8 18 C-7.34 18.33 -6.68 18.66 -6 19 C-6 19.99 -6 20.98 -6 22 C-5.34 22.33 -4.68 22.66 -4 23 C-2.66666667 24.33333333 -1.33333333 25.66666667 0 27 C0.99 27.66 1.98 28.32 3 29 C2.01 29.33 1.02 29.66 0 30 C-4.45806718 26.93507881 -7.22199644 24.2352327 -9 19 C-9.99482876 12.42307653 -9.03137003 7.93655626 -5.38671875 2.3984375 C-4.70029297 1.70621094 -4.70029297 1.70621094 -4 1 C-3.01 1 -2.02 1 -1 1 C-0.67 0.67 -0.34 0.34 0 0 Z " fill="#B0B0B0" transform="translate(160,161)"/>
<path d="M0 0 C0 0.66 0 1.32 0 2 C-1.32 2.33 -2.64 2.66 -4 3 C-4 3.66 -4 4.32 -4 5 C-6.87525669 5.05425013 -9.74947646 5.09379277 -12.625 5.125 C-13.43324219 5.14175781 -14.24148437 5.15851563 -15.07421875 5.17578125 C-19.80093815 5.21420986 -23.55387702 4.82737094 -28 3 C-28 2.67 -28 2.34 -28 2 C-26.70964844 2.02320313 -25.41929687 2.04640625 -24.08984375 2.0703125 C-22.37240166 2.08908236 -20.65495326 2.10728125 -18.9375 2.125 C-17.66616211 2.15013672 -17.66616211 2.15013672 -16.36914062 2.17578125 C-10.67328396 2.2197647 -5.42951258 0 0 0 Z " fill="#70540D" transform="translate(192,241)"/>
<path d="M0 0 C1.65 0.33 3.3 0.66 5 1 C5 1.66 5 2.32 5 3 C3.35546875 4.62109375 3.35546875 4.62109375 1.1875 6.4375 C-1.7872594 8.93672395 -1.7872594 8.93672395 -4.5625 11.6484375 C-6.71735803 13.67447249 -9.20230277 14.19177635 -12 15 C-8.49925018 10.82556637 -5.02049157 6.6854506 -1 3 C-0.34 3 0.32 3 1 3 C0.67 2.01 0.34 1.02 0 0 Z " fill="#E0A044" transform="translate(226,208)"/>
<path d="M0 0 C0.99 0.33 1.98 0.66 3 1 C2.77960279 4.85695125 1.98453876 6.01616402 -0.75 8.875 C-4 11 -4 11 -6.875 10.8125 C-7.57625 10.544375 -8.2775 10.27625 -9 10 C-8.2575 9.278125 -7.515 8.55625 -6.75 7.8125 C-4.30709485 5.31407427 -2.1318953 2.76356798 0 0 Z " fill="#787878" transform="translate(287,181)"/>
<path d="M0 0 C0 4.24645065 -1.81750806 6.38524772 -4 10 C-4.66 10 -5.32 10 -6 10 C-6.66 11.32 -7.32 12.64 -8 14 C-8.99 14 -9.98 14 -11 14 C-9.62581378 9.50266327 -7.68527603 7.80782936 -4 5 C-2.62631655 3.36643049 -1.28062485 1.7074998 0 0 Z " fill="#4C4644" transform="translate(89,133)"/>
<path d="M0 0 C-3.19801825 2.82901615 -5.73715752 3.73357234 -10 4 C-12.1875 3.01171875 -12.1875 3.01171875 -14 2 C-12.42085985 1.46658816 -10.83645613 0.94874237 -9.25 0.4375 C-8.36828125 0.14746094 -7.4865625 -0.14257812 -6.578125 -0.44140625 C-3.92165684 -1.01697435 -2.52968894 -0.89248371 0 0 Z " fill="#67270C" transform="translate(204,275)"/>
<path d="M0 0 C0.33 1.32 0.66 2.64 1 4 C0.39671875 4.22429687 -0.2065625 4.44859375 -0.828125 4.6796875 C-3.66234919 6.40265113 -4.37142854 8.13809517 -5.75 11.125 C-6.17796875 12.03507813 -6.6059375 12.94515625 -7.046875 13.8828125 C-7.36140625 14.58148438 -7.6759375 15.28015625 -8 16 C-8.671875 14.28515625 -8.671875 14.28515625 -9 12 C-7.890625 9.74609375 -7.890625 9.74609375 -6.25 7.4375 C-5.71890625 6.67308594 -5.1878125 5.90867188 -4.640625 5.12109375 C-3.1956656 3.25296767 -1.7156525 1.61746757 0 0 Z " fill="#444444" transform="translate(115,151)"/>
<path d="M0 0 C0 3.63 0 7.26 0 11 C-0.99 11.495 -0.99 11.495 -2 12 C-3.28317892 8.15046324 -3.06643637 5.05261865 -3 1 C-1 0 -1 0 0 0 Z " fill="#BEBEBE" transform="translate(156,170)"/>
<path d="M0 0 C1.75570312 0.02707031 1.75570312 0.02707031 3.546875 0.0546875 C4.88492188 0.08949219 4.88492188 0.08949219 6.25 0.125 C5.26 1.61 5.26 1.61 4.25 3.125 C2.04296875 3.453125 2.04296875 3.453125 -0.5625 3.375 C-1.89861328 3.33632812 -1.89861328 3.33632812 -3.26171875 3.296875 C-5.82839181 3.11958518 -8.26157815 2.78857916 -10.75 2.125 C-7.15537669 -0.13498595 -4.18404325 -0.08368087 0 0 Z " fill="#3D230D" transform="translate(177.75,102.875)"/>
<path d="M0 0 C1.485 0.99 1.485 0.99 3 2 C3 2.99 3 3.98 3 5 C3.66 5.33 4.32 5.66 5 6 C6.33333333 7.33333333 7.66666667 8.66666667 9 10 C9.99 10.66 10.98 11.32 12 12 C11.01 12.33 10.02 12.66 9 13 C4.47667766 9.89021589 2.07649228 7.19123069 0 2 C0 1.34 0 0.68 0 0 Z " fill="#363636" transform="translate(151,178)"/>
<path d="M0 0 C0.66 0.33 1.32 0.66 2 1 C0.59155282 4.21524305 -1.10344786 6.32183868 -3.625 8.75 C-4.57246094 9.67039062 -4.57246094 9.67039062 -5.5390625 10.609375 C-6.02117187 11.06828125 -6.50328125 11.5271875 -7 12 C-7 7.72946073 -4.69874028 6.17101982 -2 3 C-2 2.34 -2 1.68 -2 1 C-1.34 0.67 -0.68 0.34 0 0 Z " fill="#373737" transform="translate(198,22)"/>
<path d="M0 0 C0.825 0.309375 1.65 0.61875 2.5 0.9375 C6.39126155 2.11877583 9.96166953 2.58224168 14 3 C14 3.33 14 3.66 14 4 C11.36 4.33 8.72 4.66 6 5 C6 5.66 6 6.32 6 7 C5.34 7 4.68 7 4 7 C4 5.68 4 4.36 4 3 C3.01 3 2.02 3 1 3 C0.67 2.01 0.34 1.02 0 0 Z " fill="#7B6117" transform="translate(137,263)"/>
<path d="M0 0 C3.10468986 2.54020079 3.98485936 5.17370067 5 9 C5 10.32 5 11.64 5 13 C4.34 13 3.68 13 3 13 C2.49242138 11.58603098 1.99425075 10.16868271 1.5 8.75 C1.08234375 7.56664062 1.08234375 7.56664062 0.65625 6.359375 C0 4 0 4 0 0 Z " fill="#EEB45F" transform="translate(247,213)"/>
<path d="M0 0 C3.96 0.33 7.92 0.66 12 1 C12 1.66 12 2.32 12 3 C12.99 3.33 13.98 3.66 15 4 C9.72684667 3.5547115 4.98229776 2.91626837 0 1 C0 0.67 0 0.34 0 0 Z " fill="#FDB64E" transform="translate(155,274)"/>
<path d="M0 0 C0.66 0 1.32 0 2 0 C1.84518205 2.70931419 1.51827919 4.46584039 -0.40234375 6.4453125 C-1.89771708 7.67679642 -3.4462924 8.8429837 -5 10 C-5.66 9.34 -6.32 8.68 -7 8 C-5.47005208 6.79557292 -3.94010417 5.59114583 -2.41015625 4.38671875 C-0.72844923 2.94316909 -0.72844923 2.94316909 0 0 Z " fill="#643E06" transform="translate(250,131)"/>
<path d="M0 0 C2.99220268 1.36370299 5.29026529 2.94908083 7.75 5.125 C8.67039063 5.93324219 8.67039063 5.93324219 9.609375 6.7578125 C10.06828125 7.16773437 10.5271875 7.57765625 11 8 C10.67 8.66 10.34 9.32 10 10 C8.32756598 8.71580959 6.66218553 7.42242815 5 6.125 C3.6078125 5.04605469 3.6078125 5.04605469 2.1875 3.9453125 C1.465625 3.30335937 0.74375 2.66140625 0 2 C0 1.34 0 0.68 0 0 Z " fill="#6C3F00" transform="translate(210,78)"/>
<path d="M0 0 C4.23429756 1.31061591 8.07407404 2.94356259 12 5 C11.01 6.485 11.01 6.485 10 8 C9.34 7.67 8.68 7.34 8 7 C8 6.34 8 5.68 8 5 C7.05125 4.731875 6.1025 4.46375 5.125 4.1875 C2 3 2 3 0 0 Z " fill="#924C15" transform="translate(198,72)"/>
<path d="M0 0 C1.32 0 2.64 0 4 0 C3.67 0.99 3.34 1.98 3 3 C-0.5625 4.1875 -0.5625 4.1875 -4 5 C-2.25 2.5 -2.25 2.5 0 0 Z " fill="#622B08" transform="translate(160,106)"/>
<path d="M0 0 C4.29 0 8.58 0 13 0 C13 0.99 13 1.98 13 3 C8.71 2.34 4.42 1.68 0 1 C0 0.67 0 0.34 0 0 Z " fill="#9E8011" transform="translate(174,104)"/>
<path d="M0 0 C0 0.99 0 1.98 0 3 C-2.31 4.32 -4.62 5.64 -7 7 C-5.54744301 3.17053157 -3.57104439 1.87949705 0 0 Z " fill="#3C3C3C" transform="translate(164,157)"/>
<path d="M0 0 C2.64 0 5.28 0 8 0 C5.4345406 2.5654594 3.52313332 2.54046087 0 3 C0 2.01 0 1.02 0 0 Z " fill="#897121" transform="translate(164,105)"/>
</svg>
